nColumns=19
nRows=71
DataType=double
version=3
OpenSimVersion=4.1
endheader
time	ground_force_calcn_r_vx	ground_force_calcn_r_vy	ground_force_calcn_r_vz	ground_force_calcn_r_px	ground_force_calcn_r_py	ground_force_calcn_r_pz	ground_force_calcn_r_mx	ground_force_calcn_r_my	ground_force_calcn_r_mz	ground_force_calcn_l_vx	ground_force_calcn_l_vy	ground_force_calcn_l_vz	ground_force_calcn_l_px	ground_force_calcn_l_py	ground_force_calcn_l_pz	ground_force_calcn_l_mx	ground_force_calcn_l_my	ground_force_calcn_l_mz
0	-4.15761	301.301	-35.7899	-0.203557	0	-0.386614	0.0283001	-2.0509	0.243616	5.71665	483.694	69.8069	-0.228085	0	-0.879413	-0.00113578	-0.0961	-0.0138692
0.01	-4.84265	295.721	-34.4713	-0.202233	0	-0.386685	0.0343319	-2.09651	0.244384	5.82679	482.215	69.4742	-0.228612	0	-0.879417	-0.00178785	-0.147959	-0.0213169
0.02	-5.74579	289.746	-33.1003	-0.200572	0	-0.38671	0.0425598	-2.14618	0.245178	5.87821	479.9	69.0129	-0.229204	0	-0.87941	-0.00252905	-0.206473	-0.0296922
0.03	-6.88947	283.59	-31.7404	-0.198545	0	-0.386672	0.0534039	-2.19825	0.246036	5.84368	476.593	68.4085	-0.229849	0	-0.879392	-0.00331607	-0.270448	-0.0388192
0.04	-8.28359	277.508	-30.461	-0.196141	0	-0.386559	0.0671777	-2.25052	0.247031	5.69604	472.169	67.6545	-0.230538	0	-0.879363	-0.00407891	-0.338118	-0.0484471
0.05	-9.92199	271.788	-29.3331	-0.193377	0	-0.386362	0.0839829	-2.30051	0.248285	5.41095	466.564	66.7559	-0.231259	0	-0.879326	-0.00472394	-0.407326	-0.0582801
0.06	-11.7839	266.747	-28.4266	-0.190303	0	-0.386076	0.103625	-2.34572	0.249977	4.96791	459.792	65.7296	-0.232003	0	-0.87928	-0.0051381	-0.475543	-0.0679814
0.07	-13.8372	262.724	-27.806	-0.187001	0	-0.385708	0.125557	-2.38392	0.252307	4.35089	451.96	64.605	-0.232765	0	-0.879227	-0.00519856	-0.540014	-0.0771918
0.08	-16.0403	260.069	-27.526	-0.183588	0	-0.385272	0.148849	-2.41335	0.255432	3.5509	443.27	63.4216	-0.23354	0	-0.879169	-0.00478894	-0.597819	-0.0855339
0.09	-18.3405	259.106	-27.6239	-0.180204	0	-0.384791	0.172228	-2.43316	0.259404	2.57023	434.017	62.2259	-0.234336	0	-0.879104	-0.00382457	-0.645829	-0.0925938
0.1	-20.6739	260.11	-28.1133	-0.177007	0	-0.384299	0.194238	-2.44381	0.264134	1.42671	424.571	61.0662	-0.235168	0	-0.879026	-0.00228734	-0.680685	-0.0979032
0.11	-22.9661	263.259	-28.9798	-0.174142	0	-0.383836	0.21351	-2.44746	0.269419	0.157361	415.352	59.9868	-0.236063	0	-0.878929	-0.000264782	-0.698888	-0.100936
0.12	-25.1314	268.611	-30.1775	-0.171736	0	-0.383441	0.22904	-2.44804	0.275028	-1.17911	406.791	59.0221	-0.237059	0	-0.878798	0.00202005	-0.696911	-0.101116
0.13	-27.0772	276.081	-31.6331	-0.169867	0	-0.383143	0.240375	-2.45088	0.28082	-2.50144	399.271	58.1891	-0.238197	0	-0.87862	0.00420586	-0.671325	-0.0978379
0.14	-28.7129	285.453	-33.2558	-0.168566	0	-0.38296	0.247663	-2.46217	0.286848	-3.7102	393.078	57.4845	-0.239523	0	-0.878381	0.00584264	-0.619	-0.0905238
0.15	-29.9605	296.39	-34.9459	-0.167809	0	-0.382895	0.251518	-2.48819	0.29337	-4.70008	388.378	56.8893	-0.241081	0	-0.878066	0.00650628	-0.537628	-0.0787514
0.16	-30.7583	308.455	-36.6027	-0.167527	0	-0.382936	0.252771	-2.53487	0.3008	-5.37898	385.221	56.3817	-0.2429	0	-0.877668	0.00595032	-0.426138	-0.0623704
0.17	-31.069	321.129	-38.1332	-0.167616	0	-0.38306	0.252256	-2.60731	0.309611	-5.69044	383.589	55.9498	-0.245002	0	-0.877183	0.00422644	-0.284901	-0.0415554
0.18	-30.8896	333.835	-39.4595	-0.167945	0	-0.383237	0.250711	-2.70952	0.320267	-5.62343	383.424	55.5986	-0.247385	0	-0.876613	0.00169554	-0.115607	-0.0167637
0.19	-30.2613	345.971	-40.5245	-0.168375	0	-0.38343	0.248799	-2.84447	0.33318	-5.20288	384.66	55.3476	-0.250032	0	-0.875963	-0.00107077	0.0791645	0.0113908
0.2	-29.2712	356.943	-41.2931	-0.168761	0	-0.383599	0.247159	-3.01395	0.34867	-4.46471	387.194	55.219	-0.252916	0	-0.875244	-0.00341977	0.296574	0.0422953
0.21	-28.0442	366.203	-41.7492	-0.168964	0	-0.38371	0.246468	-3.21839	0.366915	-3.43272	390.843	55.2216	-0.256002	0	-0.874466	-0.00469055	0.534058	0.0754561
0.22	-26.7234	373.299	-41.8921	-0.168866	0	-0.383727	0.247459	-3.45675	0.387921	-2.11897	395.333	55.3501	-0.259256	0	-0.873642	-0.00423213	0.789584	0.110549
0.23	-25.4448	377.926	-41.7327	-0.168373	0	-0.383627	0.250901	-3.72658	0.41151	-0.539914	400.327	55.5923	-0.262642	0	-0.872785	-0.00143187	1.06168	0.147433
0.24	-24.3157	379.971	-41.2923	-0.16744	0	-0.383395	0.257516	-4.02408	0.437307	1.27051	405.457	55.9344	-0.266117	0	-0.871909	0.00422741	1.3491	0.186113
0.25	-23.4004	379.536	-40.6046	-0.166075	0	-0.383031	0.267817	-4.34377	0.464718	3.25703	410.358	56.3616	-0.269639	0	-0.871028	0.0130988	1.65033	0.226668
0.26	-22.7152	376.919	-39.7157	-0.164346	0	-0.382549	0.281937	-4.67824	0.492943	5.34725	414.699	56.8576	-0.27316	0	-0.870156	0.0253123	1.96306	0.269147
0.27	-22.2338	372.555	-38.6803	-0.162378	0	-0.381975	0.299471	-5.01801	0.520992	7.45593	418.215	57.4076	-0.27663	0	-0.869304	0.0407096	2.28347	0.313448
0.28	-21.9015	366.955	-37.5564	-0.160346	0	-0.381351	0.319415	-5.35172	0.547728	9.48958	420.716	57.9985	-0.279995	0	-0.868486	0.0587783	2.60591	0.359241
0.29	-21.6478	360.658	-36.4011	-0.158464	0	-0.38073	0.340125	-5.66657	0.571925	11.3548	422.064	58.6072	-0.283198	0	-0.867715	0.0786383	2.92303	0.405889
0.3	-21.3895	354.199	-35.268	-0.156984	0	-0.380177	0.359243	-5.9489	0.592339	12.9733	422.112	59.1832	-0.286192	0	-0.866996	0.0991518	3.22609	0.452322
0.31	-21.0305	348.083	-34.2042	-0.156185	0	-0.379765	0.373672	-6.18479	0.607744	14.2978	420.65	59.6341	-0.288941	0	-0.866333	0.11914	3.50515	0.496914
0.32	-20.4637	342.775	-33.2458	-0.156351	0	-0.379574	0.379749	-6.36093	0.616947	15.3183	417.373	59.8213	-0.291433	0	-0.865715	0.13761	3.74942	0.537398
0.33	-19.5787	338.687	-32.4176	-0.157745	0	-0.379687	0.373763	-6.46566	0.618864	16.0588	411.896	59.5701	-0.293673	0	-0.865126	0.153911	3.9477	0.570933
0.34	-18.2747	336.173	-31.7349	-0.160584	0	-0.380175	0.352792	-6.48981	0.612641	16.5639	403.844	58.7037	-0.29568	0	-0.864543	0.167753	4.08998	0.594529
0.35	-16.4779	335.519	-31.2051	-0.164998	0	-0.381085	0.315665	-6.42749	0.59779	16.881	392.957	57.0835	-0.297486	0	-0.86394	0.179115	4.16946	0.605682
0.36	-14.1598	336.955	-30.8315	-0.171003	0	-0.382434	0.263774	-6.27693	0.574342	17.0472	379.177	54.6339	-0.299117	0	-0.86329	0.188094	4.18374	0.602816
0.37	-11.3472	340.645	-30.6167	-0.178494	0	-0.3842	0.201228	-6.0409	0.542947	17.089	362.7	51.3523	-0.300597	0	-0.862573	0.194821	4.13492	0.585437
0.38	-8.1193	346.683	-30.5666	-0.187236	0	-0.386321	0.134111	-5.72635	0.504886	17.026	343.972	47.3071	-0.301938	0	-0.861764	0.199421	4.02886	0.554096
0.39	-4.59397	355.065	-30.6939	-0.1969	0	-0.388705	0.0691334	-5.34327	0.461904	16.8738	323.649	42.6267	-0.303147	0	-0.860845	0.201996	3.87441	0.510286
0.4	-0.911717	365.687	-31.0175	-0.207098	0	-0.391247	0.0122256	-4.90366	0.415928	16.6441	302.516	37.4839	-0.304218	0	-0.859798	0.20261	3.68254	0.456294
0.41	2.78106	378.375	-31.5597	-0.217438	0	-0.393838	-0.0324968	-4.42133	0.368776	16.3432	281.389	32.0752	-0.305138	0	-0.858613	0.201284	3.46561	0.395042
0.42	6.34635	392.924	-32.3411	-0.22756	0	-0.396387	-0.0631795	-3.91166	0.321964	15.9723	261.032	26.6008	-0.305888	0	-0.857286	0.198053	3.23674	0.329844
0.43	9.66515	409.113	-33.3765	-0.23717	0	-0.39882	-0.0801115	-3.39101	0.276648	15.5307	242.099	21.2467	-0.306441	0	-0.855823	0.19303	3.00903	0.264073
0.44	12.6434	426.689	-34.6719	-0.246038	0	-0.401084	-0.0852016	-2.87538	0.233648	15.019	225.122	16.1745	-0.30677	0	-0.854244	0.186458	2.79486	0.200804
0.45	15.2131	445.353	-36.2259	-0.254017	0	-0.403142	-0.0812761	-2.37929	0.193536	14.4389	210.511	11.5173	-0.306855	0	-0.852581	0.178689	2.60519	0.142533
0.46	17.332	464.775	-38.0284	-0.261025	0	-0.404979	-0.0714116	-1.91498	0.156686	13.7912	198.565	7.38056	-0.306676	0	-0.850892	0.170097	2.44905	0.0910298
0.47	18.9867	484.634	-40.053	-0.267044	0	-0.406589	-0.0584487	-1.4919	0.123299	13.0725	189.475	3.8447	-0.306234	0	-0.849249	0.160964	2.33304	0.0473405
0.48	20.1965	504.625	-42.2472	-0.272108	0	-0.40798	-0.0446752	-1.11624	0.0934521	12.2767	183.322	0.966776	-0.305547	0	-0.847738	0.151418	2.26105	0.011924
0.49	21.0055	524.455	-44.5341	-0.276278	0	-0.409171	-0.0316693	-0.790702	0.0671425	11.3995	180.07	-1.22093	-0.304656	0	-0.846437	0.141437	2.23419	-0.0151485
0.5	21.4695	543.821	-46.8203	-0.279641	0	-0.410183	-0.0203149	-0.514577	0.0443025	10.4452	179.556	-2.71497	-0.303622	0	-0.845403	0.130917	2.25049	-0.0340285
0.51	21.6437	562.395	-49.008	-0.282289	0	-0.41104	-0.0109385	-0.28423	0.0247682	9.43443	181.489	-3.54374	-0.302513	0	-0.844656	0.119836	2.30527	-0.0450126
0.52	21.5764	579.825	-51.0057	-0.284321	0	-0.411764	-0.00349337	-0.0938776	0.00825816	8.40495	185.487	-3.76524	-0.301396	0	-0.844175	0.108383	2.39189	-0.0485535
0.53	21.3053	595.752	-52.7349	-0.285829	0	-0.412379	0.00226994	0.0634735	-0.00561855	7.40558	191.14	-3.45716	-0.300323	0	-0.843919	0.0969686	2.50278	-0.0452681
0.54	20.8574	609.841	-54.1312	-0.286902	0	-0.412904	0.00667359	0.195126	-0.0173199	6.48472	198.055	-2.70384	-0.299325	0	-0.843833	0.0861292	2.63054	-0.035912
0.55	20.2529	621.799	-55.1438	-0.287617	0	-0.413359	0.0100237	0.307744	-0.027292	5.68164	205.887	-1.58745	-0.298415	0	-0.843869	0.0764097	2.76887	-0.0213489
0.56	19.5095	631.399	-55.7379	-0.288044	0	-0.413758	0.0125672	0.406722	-0.0359041	5.02564	214.335	-0.18491	-0.297589	0	-0.84398	0.0683053	2.91311	-0.00251318
0.57	18.6471	638.496	-55.8974	-0.288242	0	-0.414117	0.0144828	0.495908	-0.0434145	4.53893	223.147	1.43246	-0.296837	0	-0.844133	0.0622454	3.06017	0.0196443
0.58	17.692	643.045	-55.6227	-0.288265	0	-0.414446	0.0158885	0.577492	-0.0499524	4.23644	232.111	3.20141	-0.296143	0	-0.844296	0.0585573	3.20831	0.0442509
0.59	16.6781	645.102	-54.9272	-0.288156	0	-0.414755	0.0168564	0.651997	-0.0555143	4.12275	241.056	5.07022	-0.295491	0	-0.844455	0.0574108	3.3568	0.0706046
0.6	15.6447	644.814	-53.8349	-0.28795	0	-0.41505	0.0174286	0.718336	-0.0599732	4.18883	249.844	6.99761	-0.294864	0	-0.844598	0.0587645	3.50503	0.0981684
0.61	14.6329	642.408	-52.3804	-0.287676	0	-0.415335	0.0176271	0.773858	-0.0630984	4.41193	258.36	8.94834	-0.294243	0	-0.844721	0.0623623	3.65191	0.126484
0.62	13.6804	638.18	-50.6089	-0.287358	0	-0.415612	0.0174581	0.814405	-0.0645839	4.75902	266.504	10.8899	-0.293614	0	-0.844827	0.067776	3.79544	0.155089
0.63	12.8172	632.476	-48.5761	-0.287011	0	-0.415879	0.0169115	0.834516	-0.0640934	5.19171	274.195	12.7913	-0.292961	0	-0.844916	0.0744638	3.93274	0.183463
0.64	12.0624	625.69	-46.3461	-0.286645	0	-0.416133	0.0159604	0.827883	-0.0613229	5.67021	281.382	14.6242	-0.292269	0	-0.844997	0.0818171	4.06014	0.211017
0.65	11.4249	618.264	-43.9904	-0.286263	0	-0.416367	0.0145566	0.787735	-0.0560486	6.15477	288.04	16.3634	-0.291527	0	-0.845077	0.0891822	4.17368	0.237104
0.66	10.904	610.662	-41.586	-0.285867	0	-0.416571	0.0126288	0.707253	-0.0481637	6.60571	294.166	17.9863	-0.290725	0	-0.845165	0.095882	4.26983	0.261071
0.67	10.4913	603.34	-39.2108	-0.285454	0	-0.416737	0.0100897	0.580244	-0.0377098	6.98209	299.77	19.4731	-0.289857	0	-0.845268	0.101226	4.34605	0.28232
0.68	10.1755	596.693	-36.9386	-0.285023	0	-0.416856	0.0068516	0.401779	-0.0248724	7.2429	304.862	20.8065	-0.288915	0	-0.845393	0.104565	4.40125	0.30038
0.69	9.95056	591.022	-34.834	-0.284573	0	-0.416917	0.00284057	0.168718	-0.009944	7.35267	309.439	21.9713	-0.2879	0	-0.84554	0.105409	4.43617	0.314984
0.7	9.82232	586.504	-32.9473	-0.284109	0	-0.416913	-0.00200579	-0.119768	0.00672808	7.29034	313.48	22.9574	-0.286816	0	-0.845712	0.10357	4.45344	0.326143
